<svg xmlns="http://www.w3.org/2000/svg" width="595.279" height="288" viewBox="0 275.445 595.279 288"><path d="M.002 517.973h4.471v43.125H.002zm75.976 0h6.348v43.125h-4.471v-37.272h-.123l-19.018 37.272H54.6l-18.969-37.332h-.123v37.332H31.05v-43.125h6.52l19.204 37.506zm77.36 0h6.348v43.125h-4.471v-37.272h-.123l-19.031 37.272h-4.101l-18.97-37.332h-.123v37.332h-4.459v-43.125h6.522l19.204 37.506zm54.142-1.088c12.263 0 23.465 7.41 23.465 22.65s-11.177 22.65-23.465 22.65c-12.289 0-23.466-7.41-23.466-22.65s11.116-22.65 23.466-22.65m0 41.187c9.497 0 18.611-5.557 18.611-18.523 0-12.969-9.114-18.525-18.611-18.525-9.498 0-18.525 5.52-18.525 18.512s9.127 18.525 18.599 18.525m47.782-40.088h24.527c8.447 0 12.017 4.768 12.017 10.867a9.078 9.078 0 0 1-7.41 9.238v.123a10.202 10.202 0 0 1 9.127 10.572c0 9.004-7.608 12.35-14.252 12.35h-24.008v-43.15zm4.47 18.722h17.697c6.039 0 9.88-1.939 9.88-7.67 0-5.26-3.494-6.953-8.397-6.953h-19.18v14.623zm0 20.291h18.784c5.805 0 10.152-2.297 10.152-8.213 0-6.176-3.866-7.979-9.065-7.979h-19.871v16.192zm58.885-39.013h4.471v43.125h-4.471zm31.035 0h4.471v39.013h27.366v4.112h-31.837zm54.413 0h4.471v43.125h-4.471zm60.095 30.009h-22.712l-5.854 13.115h-4.841l19.574-43.125h5.188l19.574 43.125h-5.187l-5.742-13.115zm-11.3-25.513l-9.571 21.414h19.093l-9.522-21.414zm44.681-4.508h23.465c7.312 0 14.017 2.605 14.017 11.67a10.531 10.531 0 0 1-8.459 10.447v.125c6.1.963 7.41 4.939 7.668 11.953.125 2.719.482 7.979 1.508 8.941h-4.768c-.791-.9-1.086-4.111-1.148-8.816-.123-7.621-3.025-10.152-10.447-10.152h-17.29v18.969h-4.471l-.075-43.137zm4.471 20.055h18.92c4.878 0 9.286-1.803 9.286-8.385 0-6.348-4.766-7.559-8.878-7.559h-19.328v15.944zm58.403-20.043h34.307v4.099h-29.837v14.623h28.75v4.1h-28.75v16.191h30.319v4.112h-34.789zM236.897 407.379h70.135v-24.724h-70.135v-31.01h76.422v-26.763H205.071v144.741h109.865v-26.762h-78.039zm221.211-42.569c0-21.884-16.425-39.927-42.36-39.927h-78.051v144.729h31.826v-56.551h31.85c16.055 0 25.799 9.35 25.737 24.699v31.84h29.195v-34.248c0-14.622-5.471-29.788-21.081-33.851v-.395c16.055-6.496 22.909-19.266 22.909-36.296m-53.735 25.514h-34.875V349.57h34.875c14.178 0 21.885 6.076 21.885 20.057 0 14.597-7.707 20.686-21.885 20.686m147.902-5.83c-36.271-9.324-43.162-10.744-43.162-21.896 0-12.165 11.745-16.413 21.885-16.413 15.201 0 27.563 4.446 28.589 21.884h30.801c0-33.443-27.775-46.621-57.97-46.621-26.146 0-54.118 14.19-54.118 43.781 0 27.169 21.687 35.481 43.163 41.149 21.477 5.669 42.978 8.312 42.978 23.922 0 14.82-17.031 18.043-28.169 18.043-17.031 0-32.023-7.496-32.023-26.762h-30.875c-.396 35.678 29.64 51.498 61.625 51.498 39.372 0 60.243-19.871 60.243-46.422 0-32.839-32.432-39.521-42.978-42.164M167.38 276.706h-25.601L36.594 381.889V276.706H.002V469.6L167.38 302.295zM77.547 405.391l64.207 64.209h51.721l-90.068-90.069z"/></svg>